<?xml version="1.0" encoding="UTF-8" standalone="no"?>
<!-- Created with Inkscape (http://www.inkscape.org/) -->

<svg
   width="512"
   height="512"
   viewBox="0 0 135.46666 135.46667"
   version="1.1"
   id="svg5"
   inkscape:version="1.1.2 (76b9e6a115, 2022-02-25)"
   sodipodi:docname="plus.svg"
   xmlns:inkscape="http://www.inkscape.org/namespaces/inkscape"
   xmlns:sodipodi="http://sodipodi.sourceforge.net/DTD/sodipodi-0.dtd"
   xmlns="http://www.w3.org/2000/svg"
   xmlns:svg="http://www.w3.org/2000/svg">
  <sodipodi:namedview
     id="namedview7"
     pagecolor="#505050"
     bordercolor="#eeeeee"
     borderopacity="1"
     inkscape:pageshadow="0"
     inkscape:pageopacity="0"
     inkscape:pagecheckerboard="0"
     inkscape:document-units="mm"
     showgrid="false"
     scale-x="1"
     units="px"
     width="512px"
     inkscape:zoom="1.0154442"
     inkscape:cx="180.21669"
     inkscape:cy="224.53227"
     inkscape:window-width="1920"
     inkscape:window-height="996"
     inkscape:window-x="0"
     inkscape:window-y="0"
     inkscape:window-maximized="1"
     inkscape:current-layer="layer1" />
  <defs
     id="defs2" />
  <g
     inkscape:label="Layer 1"
     inkscape:groupmode="layer"
     id="layer1">
    <path
       id="rect862"
       style="fill:#000000;stroke:#d7d7d7;stroke-width:0;stroke-linejoin:round"
       d="M 256 0 C 228.3 9.4739031e-15 206 22.299999 206 50 L 206 206 L 50 206 C 22.299999 206 0 228.3 0 256 C 9.4739031e-15 283.7 22.299999 306 50 306 L 206 306 L 206 462 C 206 489.7 228.3 512 256 512 C 283.7 512 306 489.7 306 462 L 306 306 L 462 306 C 489.7 306 512 283.7 512 256 C 512 228.3 489.7 206 462 206 L 306 206 L 306 50 C 306 22.299999 283.7 0 256 0 z "
       transform="scale(0.26458333)" />
  </g>
</svg>
